<svg width="100" height="100" viewBox="0 0 100 100" fill="none" xmlns="http://www.w3.org/2000/svg">
<path d="M50 0L93.3013 75H6.69873L50 0Z" fill="#1A202C"/>
<path d="M64.2768 54.0855L66.4107 49.1947C66.7679 48.3744 66.0804 47.4994 65.0714 47.4994H59.8482C60.8304 46.0228 61.4375 44.3274 61.4375 42.4992V42.4758C64.9375 41.8664 67.1518 40.9835 67.1518 39.9991C67.1518 38.9601 64.7143 38.0382 60.8929 37.4209C60.0714 34.8584 58.4821 32.2802 57.2679 30.952C56.4196 30.0223 54.9554 29.7332 53.7411 30.2645L51.2768 31.3426C50.4732 31.6942 49.5268 31.6942 48.7232 31.3426L46.2589 30.2645C45.0446 29.7332 43.5804 30.0223 42.7321 30.952C41.5268 32.2802 39.9286 34.8584 39.1071 37.4209C35.2946 38.0382 32.8571 38.9601 32.8571 39.9991C32.8571 40.9835 35.0714 41.8664 38.5714 42.4758V42.4992C38.5714 44.3274 39.1786 46.0228 40.1607 47.4994H35.0268C34 47.4994 33.3125 48.4134 33.7143 49.2416L36.0179 53.9449C32.4375 55.7652 30 59.1169 30 62.9998V66.4999C30 68.4296 31.7946 70 34 70H66C68.2054 70 70 68.4296 70 66.4999V62.9998C70 59.2184 67.6964 55.9371 64.2768 54.0855V54.0855ZM45.7143 67.4999L42 52.4995L46.4286 54.9996L48.5714 58.1247L45.7143 67.4999ZM54.2857 67.4999L51.4286 58.1247L53.5714 54.9996L58 52.4995L54.2857 67.4999ZM58.0089 44.179C57.6607 45.1087 57.3839 46.1009 56.5357 46.7884C55.6339 47.515 52.25 48.5385 50.8214 44.8352C50.5714 44.179 49.4464 44.179 49.1875 44.8352C47.6696 48.7572 44.1875 47.3665 43.4732 46.7884C42.625 46.1009 42.3393 45.1087 42 44.179C41.9286 43.9836 41.4375 43.7336 41.4375 43.7258V42.882C43.9643 43.1633 46.8839 43.3352 50.0089 43.3352C53.1339 43.3352 56.0536 43.1711 58.5804 42.882V43.7258C58.5714 43.7336 58.0804 43.9758 58.0089 44.179Z" fill="#F7FAFC"/>
</svg>
